<?xml version="1.0" standalone="no"?>
<!DOCTYPE svg PUBLIC "-//W3C//DTD SVG 20010904//EN"
 "http://www.w3.org/TR/2001/REC-SVG-20010904/DTD/svg10.dtd">
<svg version="1.0" xmlns="http://www.w3.org/2000/svg"
 width="53.000000pt" height="64.000000pt" viewBox="0 0 53.000000 64.000000"
 preserveAspectRatio="xMidYMid meet">
<metadata>
Created by potrace 1.10, written by Peter Selinger 2001-2011
</metadata>
<g transform="translate(0.000000,64.000000) scale(0.100000,-0.100000)"
fill="#000000" stroke="none">
<path d="M230 353 l0 -238 -83 83 c-74 74 -85 81 -97 67 -12 -14 -1 -29 88
-118 57 -57 111 -103 121 -104 11 -1 59 40 121 102 91 91 102 106 90 120 -12
14 -23 7 -102 -72 l-88 -88 0 243 0 242 -25 0 -25 0 0 -237z"/>
</g>
</svg>
